<?xml version="1.0" encoding="UTF-8" standalone="no"?>
<!-- Created with Inkscape (http://www.inkscape.org/) -->

<svg
   width="1914.3525"
   height="270.00003"
   viewBox="0 0 506.50577 71.437508"
   version="1.1"
   id="svg1"
   inkscape:version="1.3.2 (091e20e, 2023-11-25)"
   sodipodi:docname="desktop1postunion.svg"
   xml:space="preserve"
   xmlns:inkscape="http://www.inkscape.org/namespaces/inkscape"
   xmlns:sodipodi="http://sodipodi.sourceforge.net/DTD/sodipodi-0.dtd"
   xmlns:xlink="http://www.w3.org/1999/xlink"
   xmlns="http://www.w3.org/2000/svg"
   xmlns:svg="http://www.w3.org/2000/svg"><sodipodi:namedview
     id="namedview1"
     pagecolor="#ffffff"
     bordercolor="#000000"
     borderopacity="0.25"
     inkscape:showpageshadow="2"
     inkscape:pageopacity="0.0"
     inkscape:pagecheckerboard="0"
     inkscape:deskcolor="#d1d1d1"
     inkscape:document-units="px"
     inkscape:zoom="2.1022158"
     inkscape:cx="526.34939"
     inkscape:cy="182.42656"
     inkscape:window-width="1440"
     inkscape:window-height="769"
     inkscape:window-x="0"
     inkscape:window-y="25"
     inkscape:window-maximized="0"
     inkscape:current-layer="layer5" /><defs
     id="defs1"><linearGradient
       id="linearGradient2-1"><stop
         style="stop-color:#acd793;stop-opacity:1;"
         offset="0"
         id="stop20" /><stop
         style="stop-color:#ffe8c8;stop-opacity:1;"
         offset="1"
         id="stop21" /></linearGradient><linearGradient
       id="linearGradient2"><stop
         style="stop-color:#acd793;stop-opacity:1;"
         offset="0.47826087"
         id="stop4" /><stop
         style="stop-color:#ffe8c8;stop-opacity:0;"
         offset="1"
         id="stop5" /></linearGradient><linearGradient
       id="linearGradient2-2"><stop
         style="stop-color:#ffe8c8;stop-opacity:1;"
         offset="0"
         id="stop2" /><stop
         style="stop-color:#acd793;stop-opacity:1;"
         offset="1"
         id="stop3" /></linearGradient><linearGradient
       inkscape:collect="always"
       xlink:href="#linearGradient2-1"
       id="linearGradient3"
       x1="129.79724"
       y1="52.066891"
       x2="636.30304"
       y2="52.066891"
       gradientUnits="userSpaceOnUse" /><linearGradient
       inkscape:collect="always"
       xlink:href="#linearGradient2-2"
       id="linearGradient23"
       x1="-135.15506"
       y1="10.5"
       x2="57.073532"
       y2="10.5"
       gradientUnits="userSpaceOnUse" /><linearGradient
       inkscape:collect="always"
       xlink:href="#linearGradient2-2"
       id="linearGradient24"
       gradientUnits="userSpaceOnUse"
       x1="-135.15506"
       y1="10.5"
       x2="57.073532"
       y2="10.5" /><linearGradient
       inkscape:collect="always"
       xlink:href="#linearGradient2-2"
       id="linearGradient25"
       gradientUnits="userSpaceOnUse"
       x1="-135.15506"
       y1="10.5"
       x2="57.073532"
       y2="10.5" /><linearGradient
       inkscape:collect="always"
       xlink:href="#linearGradient2-2"
       id="linearGradient26"
       gradientUnits="userSpaceOnUse"
       x1="-135.15506"
       y1="10.5"
       x2="57.073532"
       y2="10.5" /><linearGradient
       inkscape:collect="always"
       xlink:href="#linearGradient2-2"
       id="linearGradient27"
       gradientUnits="userSpaceOnUse"
       x1="-135.15506"
       y1="10.5"
       x2="57.073532"
       y2="10.5" /><linearGradient
       inkscape:collect="always"
       xlink:href="#linearGradient2-2"
       id="linearGradient28"
       gradientUnits="userSpaceOnUse"
       x1="-135.15506"
       y1="10.5"
       x2="57.073532"
       y2="10.5" /><linearGradient
       inkscape:collect="always"
       xlink:href="#linearGradient2-2"
       id="linearGradient29"
       gradientUnits="userSpaceOnUse"
       x1="-135.15506"
       y1="10.5"
       x2="57.073532"
       y2="10.5" /><linearGradient
       inkscape:collect="always"
       xlink:href="#linearGradient2-2"
       id="linearGradient30"
       gradientUnits="userSpaceOnUse"
       x1="-135.15506"
       y1="10.5"
       x2="57.073532"
       y2="10.5" /><linearGradient
       inkscape:collect="always"
       xlink:href="#linearGradient2-2"
       id="linearGradient31"
       gradientUnits="userSpaceOnUse"
       x1="-135.15506"
       y1="10.5"
       x2="57.073532"
       y2="10.5" /></defs><g
     inkscape:groupmode="layer"
     id="layer5"
     inkscape:label="Canvas Desktop"
     transform="translate(-129.79724,-16.348137)"><rect
       style="fill:url(#linearGradient3);stroke:#000000;stroke-width:0.285672;stroke-opacity:1;fill-opacity:1"
       id="rect3-9"
       width="506.22009"
       height="71.151833"
       x="129.94008"
       y="16.490973" /><text
       xml:space="preserve"
       style="font-size:25.4px;fill:#ffe8c8;fill-opacity:1;stroke:#000000;stroke-width:0.02645833;stroke-dasharray:none"
       x="137.68336"
       y="78.830574"
       id="text1"><tspan
         sodipodi:role="line"
         id="tspan1"
         style="font-style:italic;font-variant:normal;font-weight:bold;font-stretch:normal;font-size:25.4px;font-family:'Santello Regular';-inkscape-font-specification:'Santello Regular,  Bold Italic';fill:#ffe8c8;fill-opacity:1;stroke:#000000;stroke-width:0.02645833;stroke-dasharray:none"
         x="137.68336"
         y="78.830574"><tspan
   style="stroke:#000000;stroke-width:0.02645833;stroke-dasharray:none;fill:#ffe8c8;fill-opacity:1"
   id="tspan2">ThirtyMeal</tspan>s</tspan></text><g
       style="fill:url(#linearGradient23);fill-opacity:1;stroke:#000000;stroke-width:0.390362;stroke-dasharray:none;stroke-opacity:1"
       id="g5"
       transform="matrix(1.8300306,0,0,1.8300306,522.75437,48.517332)"><path
         style="color:#000000;display:none;fill:url(#linearGradient24);fill-opacity:1;stroke:#000000;stroke-width:0.390362;stroke-linecap:round;stroke-linejoin:round;stroke-dasharray:none;stroke-opacity:1"
         d="M 8,21.25 A 0.75,0.75 0 0 0 7.25,22 0.75,0.75 0 0 0 8,22.75 h 8 A 0.75,0.75 0 0 0 16.75,22 0.75,0.75 0 0 0 16,21.25 Z"
         id="path1" /><path
         style="color:#000000;fill:url(#linearGradient25);fill-opacity:1;stroke:#000000;stroke-width:0.390362;stroke-linecap:round;stroke-linejoin:round;stroke-dasharray:none;stroke-opacity:1"
         d="M 5,18.25 A 0.75,0.75 0 0 0 4.25,19 0.75,0.75 0 0 0 5,19.75 H 19 A 0.75,0.75 0 0 0 19.75,19 0.75,0.75 0 0 0 19,18.25 Z"
         id="path2" /><path
         id="path3"
         style="color:#000000;fill:url(#linearGradient26);fill-opacity:1;stroke:#000000;stroke-width:0.390362;stroke-linecap:round;stroke-linejoin:round;stroke-dasharray:none;stroke-opacity:1"
         inkscape:label="horizon"
         d="m 12.000012,5.2499575 c -0.787074,0 -1.545644,0.1359485 -2.2500046,0.3848842 A 0.75,0.75 0 0 0 9.2931163,6.591828 0.75,0.75 0 0 0 10.250103,7.0487191 c 0.546834,-0.1932629 1.134388,-0.2987582 1.749909,-0.2987582 2.908361,0 5.250012,2.3416413 5.250012,5.2500121 0,1.228425 -0.455029,2.325872 -1.158323,3.218851 H 7.9083241 C 7.2050119,14.325858 6.7500007,13.228413 6.7500007,11.999973 c 0,-0.615523 0.1054953,-1.203076 0.2987582,-1.74991 A 0.75,0.75 0 0 0 6.5918678,9.2930765 0.75,0.75 0 0 0 5.6348815,9.7499676 C 5.3859457,10.454328 5.2499973,11.212897 5.2499973,11.999973 c 0,1.175621 0.3025383,2.284811 0.8333038,3.249913 h -4.083217 a 0.75,0.75 0 0 0 -0.025414,0.0051 H -134.97434 v 1.451716 H 1.7826514 a 0.75,0.75 0 0 0 0.2174327,0.0432 H 21.999941 a 0.75,0.75 0 0 0 0.217433,-0.0432 H 56.892809 V 15.254969 H 22.064041 a 0.75,0.75 0 0 0 -0.0641,-0.0051 h -4.083217 c 0.530763,-0.965097 0.833304,-2.074281 0.833304,-3.249913 0,-3.7190308 -3.030996,-6.7500155 -6.750016,-6.7500155 z" /><path
         style="color:#000000;fill:url(#linearGradient27);fill-opacity:1;stroke:#000000;stroke-width:0.390362;stroke-linecap:round;stroke-dasharray:none;stroke-opacity:1"
         d="M 12,1.25 A 0.75,0.75 0 0 0 11.25,2 V 3 A 0.75,0.75 0 0 0 12,3.75 0.75,0.75 0 0 0 12.75,3 V 2 A 0.75,0.75 0 0 0 12,1.25 Z"
         id="path5" /><path
         style="color:#000000;fill:url(#linearGradient28);fill-opacity:1;stroke:#000000;stroke-width:0.390362;stroke-linecap:round;stroke-dasharray:none;stroke-opacity:1"
         d="M 21,11.25 A 0.75,0.75 0 0 0 20.25,12 0.75,0.75 0 0 0 21,12.75 h 1 A 0.75,0.75 0 0 0 22.75,12 0.75,0.75 0 0 0 22,11.25 Z"
         id="path6" /><path
         style="color:#000000;fill:url(#linearGradient29);fill-opacity:1;stroke:#000000;stroke-width:0.390362;stroke-linecap:round;stroke-dasharray:none;stroke-opacity:1"
         d="M 2,11.25 A 0.75,0.75 0 0 0 1.25,12 0.75,0.75 0 0 0 2,12.75 H 3 A 0.75,0.75 0 0 0 3.75,12 0.75,0.75 0 0 0 3,11.25 Z"
         id="path7" /><path
         style="color:#000000;fill:url(#linearGradient30);fill-opacity:1;stroke:#000000;stroke-width:0.390362;stroke-linecap:round;stroke-dasharray:none;stroke-opacity:1"
         d="m 19.070312,4.1796875 a 0.75,0.75 0 0 0 -0.529296,0.21875 l -0.392579,0.3945312 a 0.75,0.75 0 0 0 0,1.0605469 0.75,0.75 0 0 0 1.060547,0 l 0.392578,-0.3925781 a 0.75,0.75 0 0 0 0,-1.0625 0.75,0.75 0 0 0 -0.53125,-0.21875 z"
         id="path8" /><path
         style="color:#000000;fill:url(#linearGradient31);fill-opacity:1;stroke:#000000;stroke-width:0.390362;stroke-linecap:round;stroke-dasharray:none;stroke-opacity:1"
         d="m 4.9296875,4.1796875 a 0.75,0.75 0 0 0 -0.53125,0.21875 0.75,0.75 0 0 0 0,1.0605469 l 0.3925781,0.3945312 a 0.75,0.75 0 0 0 1.0605469,0 0.75,0.75 0 0 0 0,-1.0625 L 5.4589844,4.3984375 a 0.75,0.75 0 0 0 -0.5292969,-0.21875 z"
         id="path9" /></g></g></svg>
