<?xml version="1.0" encoding="UTF-8" standalone="no"?>
<!-- Created with Inkscape (http://www.inkscape.org/) -->

<svg
   width="1914.3525"
   height="270.00003"
   viewBox="0 0 506.50577 71.437508"
   version="1.1"
   id="svg1"
   inkscape:version="1.3.2 (091e20e, 2023-11-25)"
   sodipodi:docname="desktop1.svg"
   xml:space="preserve"
   xmlns:inkscape="http://www.inkscape.org/namespaces/inkscape"
   xmlns:sodipodi="http://sodipodi.sourceforge.net/DTD/sodipodi-0.dtd"
   xmlns:xlink="http://www.w3.org/1999/xlink"
   xmlns="http://www.w3.org/2000/svg"
   xmlns:svg="http://www.w3.org/2000/svg"><sodipodi:namedview
     id="namedview1"
     pagecolor="#ffffff"
     bordercolor="#000000"
     borderopacity="0.25"
     inkscape:showpageshadow="2"
     inkscape:pageopacity="0.0"
     inkscape:pagecheckerboard="0"
     inkscape:deskcolor="#d1d1d1"
     inkscape:document-units="px"
     inkscape:zoom="1.2615788"
     inkscape:cx="1433.5212"
     inkscape:cy="231.85234"
     inkscape:window-width="1440"
     inkscape:window-height="769"
     inkscape:window-x="0"
     inkscape:window-y="25"
     inkscape:window-maximized="0"
     inkscape:current-layer="layer5" /><defs
     id="defs1"><linearGradient
       id="linearGradient2-1"><stop
         style="stop-color:#acd793;stop-opacity:1;"
         offset="0"
         id="stop20" /><stop
         style="stop-color:#ffe8c8;stop-opacity:1;"
         offset="1"
         id="stop21" /></linearGradient><linearGradient
       id="linearGradient2"><stop
         style="stop-color:#acd793;stop-opacity:1;"
         offset="0.47826087"
         id="stop4" /><stop
         style="stop-color:#ffe8c8;stop-opacity:0;"
         offset="1"
         id="stop5" /></linearGradient><linearGradient
       id="linearGradient2-2"><stop
         style="stop-color:#ffe8c8;stop-opacity:1;"
         offset="0"
         id="stop2" /><stop
         style="stop-color:#acd793;stop-opacity:1;"
         offset="1"
         id="stop3" /></linearGradient><linearGradient
       inkscape:collect="always"
       xlink:href="#linearGradient2-1"
       id="linearGradient3"
       x1="129.79724"
       y1="52.066891"
       x2="636.30304"
       y2="52.066891"
       gradientUnits="userSpaceOnUse" /><linearGradient
       inkscape:collect="always"
       xlink:href="#linearGradient2-2"
       id="linearGradient20"
       x1="274.40979"
       y1="77.762657"
       x2="626.19373"
       y2="77.762657"
       gradientUnits="userSpaceOnUse" /></defs><g
     inkscape:groupmode="layer"
     id="layer5"
     inkscape:label="Canvas Desktop"
     transform="translate(-129.79724,-16.348137)"><rect
       style="fill:url(#linearGradient3);stroke:#000000;stroke-width:0.285672;stroke-opacity:1;fill-opacity:1"
       id="rect3-9"
       width="506.22009"
       height="71.151833"
       x="129.94008"
       y="16.490973" /><text
       xml:space="preserve"
       style="font-size:25.4px;fill:#ffe8c8;fill-opacity:1;stroke:#000000;stroke-width:0.66145833;stroke-dasharray:none"
       x="137.68336"
       y="78.830574"
       id="text1"><tspan
         sodipodi:role="line"
         id="tspan1"
         style="font-style:italic;font-variant:normal;font-weight:bold;font-stretch:normal;font-size:25.4px;font-family:'Santello Regular';-inkscape-font-specification:'Santello Regular,  Bold Italic';fill:#ffe8c8;fill-opacity:1;stroke:#000000;stroke-width:0.66145833;stroke-dasharray:none"
         x="137.68336"
         y="78.830574"><tspan
   style="stroke:#000000;stroke-width:0.66145833;stroke-dasharray:none;fill:#ffe8c8;fill-opacity:1"
   id="tspan2">ThirtyMeal</tspan>s</tspan></text><g
       style="fill:#acd793;fill-opacity:1;stroke:#000000;stroke-width:0.361447;stroke-dasharray:none;stroke-opacity:1"
       id="g5"
       transform="matrix(1.8300306,0,0,1.8300306,521.7475,48.517332)"><path
         style="color:#000000;display:none;fill:#acd793;fill-opacity:1;stroke:#000000;stroke-width:0.361447;stroke-linecap:round;stroke-linejoin:round;stroke-dasharray:none;stroke-opacity:1"
         d="M 8,21.25 A 0.75,0.75 0 0 0 7.25,22 0.75,0.75 0 0 0 8,22.75 h 8 A 0.75,0.75 0 0 0 16.75,22 0.75,0.75 0 0 0 16,21.25 Z"
         id="path1" /><path
         style="color:#000000;fill:#acd793;fill-opacity:1;stroke:#000000;stroke-width:0.361447;stroke-linecap:round;stroke-linejoin:round;stroke-dasharray:none;stroke-opacity:1"
         d="M 5,18.25 A 0.75,0.75 0 0 0 4.25,19 0.75,0.75 0 0 0 5,19.75 H 19 A 0.75,0.75 0 0 0 19.75,19 0.75,0.75 0 0 0 19,18.25 Z"
         id="path2" /><path
         id="path3"
         style="color:#000000;fill:#acd793;fill-opacity:1;stroke:#000000;stroke-width:0.361447;stroke-linecap:round;stroke-linejoin:round;stroke-dasharray:none;stroke-opacity:1"
         inkscape:label="horizon"
         d="m 12.000019,5.2499786 c -0.787075,0 -1.545639,0.1358492 -2.2499999,0.3847851 A 0.75,0.75 0 0 0 9.2929879,6.5917754 0.75,0.75 0 0 0 10.25,7.0488067 c 0.546835,-0.1932631 1.134497,-0.2988281 1.750019,-0.2988281 2.908363,0 5.25,2.341627 5.25,5.2500004 0,1.228427 -0.454928,2.325809 -1.158223,3.218789 H 7.9081832 C 7.2048703,14.325801 6.7500191,13.228421 6.7500191,11.999979 c 0,-0.615523 0.1055651,-1.203126 0.2988282,-1.749961 A 0.75,0.75 0 0 0 6.591816,9.2929473 0.75,0.75 0 0 0 5.6347457,9.7499786 C 5.3858097,10.45434 5.2500191,11.212903 5.2500191,11.999979 c 0,1.175623 0.3023785,2.284916 0.8331446,3.250019 H 1.9999996 a 0.75,0.75 0 0 0 -0.75,0.75 0.75,0.75 0 0 0 0.75,0.75 H 21.99998 a 0.75,0.75 0 0 0 0.75,-0.75 0.75,0.75 0 0 0 -0.75,-0.75 h -4.083164 c 0.530764,-0.965098 0.833203,-2.074385 0.833203,-3.250019 0,-3.7190342 -3.030977,-6.7500004 -6.75,-6.7500004 z" /><path
         style="color:#000000;fill:#acd793;fill-opacity:1;stroke:#000000;stroke-width:0.361447;stroke-linecap:round;stroke-dasharray:none;stroke-opacity:1"
         d="M 12,1.25 A 0.75,0.75 0 0 0 11.25,2 V 3 A 0.75,0.75 0 0 0 12,3.75 0.75,0.75 0 0 0 12.75,3 V 2 A 0.75,0.75 0 0 0 12,1.25 Z"
         id="path5" /><path
         style="color:#000000;fill:#acd793;fill-opacity:1;stroke:#000000;stroke-width:0.361447;stroke-linecap:round;stroke-dasharray:none;stroke-opacity:1"
         d="M 21,11.25 A 0.75,0.75 0 0 0 20.25,12 0.75,0.75 0 0 0 21,12.75 h 1 A 0.75,0.75 0 0 0 22.75,12 0.75,0.75 0 0 0 22,11.25 Z"
         id="path6" /><path
         style="color:#000000;fill:#acd793;fill-opacity:1;stroke:#000000;stroke-width:0.361447;stroke-linecap:round;stroke-dasharray:none;stroke-opacity:1"
         d="M 2,11.25 A 0.75,0.75 0 0 0 1.25,12 0.75,0.75 0 0 0 2,12.75 H 3 A 0.75,0.75 0 0 0 3.75,12 0.75,0.75 0 0 0 3,11.25 Z"
         id="path7" /><path
         style="color:#000000;fill:#acd793;fill-opacity:1;stroke:#000000;stroke-width:0.361447;stroke-linecap:round;stroke-dasharray:none;stroke-opacity:1"
         d="m 19.070312,4.1796875 a 0.75,0.75 0 0 0 -0.529296,0.21875 l -0.392579,0.3945312 a 0.75,0.75 0 0 0 0,1.0605469 0.75,0.75 0 0 0 1.060547,0 l 0.392578,-0.3925781 a 0.75,0.75 0 0 0 0,-1.0625 0.75,0.75 0 0 0 -0.53125,-0.21875 z"
         id="path8" /><path
         style="color:#000000;fill:#acd793;fill-opacity:1;stroke:#000000;stroke-width:0.361447;stroke-linecap:round;stroke-dasharray:none;stroke-opacity:1"
         d="m 4.9296875,4.1796875 a 0.75,0.75 0 0 0 -0.53125,0.21875 0.75,0.75 0 0 0 0,1.0605469 l 0.3925781,0.3945312 a 0.75,0.75 0 0 0 1.0605469,0 0.75,0.75 0 0 0 0,-1.0625 L 5.4589844,4.3984375 a 0.75,0.75 0 0 0 -0.5292969,-0.21875 z"
         id="path9" /></g><rect
       style="fill:url(#linearGradient20);fill-opacity:0.13017751;stroke:#000000;stroke-width:0.66145833;stroke-dasharray:none;stroke-opacity:1"
       id="rect10"
       width="351.1225"
       height="2.6569762"
       x="274.74051"
       y="76.434166" /></g></svg>
