<?xml version="1.0" encoding="UTF-8" standalone="no"?>
<!-- Created with Inkscape (http://www.inkscape.org/) -->

<svg
   width="399.1427"
   height="88.287811"
   viewBox="0 0 105.6065 23.359483"
   version="1.1"
   id="svg1"
   inkscape:version="1.3.2 (091e20e, 2023-11-25)"
   sodipodi:docname="mobile1.svg"
   xmlns:inkscape="http://www.inkscape.org/namespaces/inkscape"
   xmlns:sodipodi="http://sodipodi.sourceforge.net/DTD/sodipodi-0.dtd"
   xmlns:xlink="http://www.w3.org/1999/xlink"
   xmlns="http://www.w3.org/2000/svg"
   xmlns:svg="http://www.w3.org/2000/svg">
  <sodipodi:namedview
     id="namedview1"
     pagecolor="#ffffff"
     bordercolor="#000000"
     borderopacity="0.25"
     inkscape:showpageshadow="2"
     inkscape:pageopacity="0.0"
     inkscape:pagecheckerboard="0"
     inkscape:deskcolor="#d1d1d1"
     inkscape:document-units="px"
     inkscape:zoom="0.65490082"
     inkscape:cx="270.26993"
     inkscape:cy="164.14699"
     inkscape:window-width="1440"
     inkscape:window-height="769"
     inkscape:window-x="0"
     inkscape:window-y="25"
     inkscape:window-maximized="0"
     inkscape:current-layer="layer2" />
  <defs
     id="defs1">
    <linearGradient
       id="linearGradient10">
      <stop
         style="stop-color:#ffe8c8;stop-opacity:1;"
         offset="0.09881423"
         id="stop11" />
      <stop
         style="stop-color:#ffe8c8;stop-opacity:1;"
         offset="0.8853755"
         id="stop9" />
      <stop
         style="stop-color:#fde7c7;stop-opacity:1;"
         offset="0.07114624"
         id="stop12" />
      <stop
         style="stop-color:#acd793;stop-opacity:1;"
         offset="1"
         id="stop10" />
    </linearGradient>
    <linearGradient
       id="linearGradient2-2">
      <stop
         style="stop-color:#ffe8c8;stop-opacity:1;"
         offset="0"
         id="stop2" />
      <stop
         style="stop-color:#acd793;stop-opacity:1;"
         offset="1"
         id="stop3" />
    </linearGradient>
    <linearGradient
       inkscape:collect="always"
       xlink:href="#linearGradient2-1"
       id="linearGradient3"
       x1="129.79724"
       y1="52.066891"
       x2="636.30304"
       y2="52.066891"
       gradientUnits="userSpaceOnUse"
       gradientTransform="matrix(0.20847037,0,0,0.32725604,-14.459049,12.238424)" />
    <linearGradient
       id="linearGradient2-1">
      <stop
         style="stop-color:#acd793;stop-opacity:1;"
         offset="0"
         id="stop20" />
      <stop
         style="stop-color:#ffe8c8;stop-opacity:1;"
         offset="1"
         id="stop21" />
    </linearGradient>
    <linearGradient
       inkscape:collect="always"
       xlink:href="#linearGradient2-2"
       id="linearGradient14"
       x1="-38.624649"
       y1="10.5"
       x2="57.08799"
       y2="10.5"
       gradientUnits="userSpaceOnUse" />
    <linearGradient
       inkscape:collect="always"
       xlink:href="#linearGradient2-2"
       id="linearGradient15"
       gradientUnits="userSpaceOnUse"
       x1="-38.624649"
       y1="10.5"
       x2="57.08799"
       y2="10.5" />
    <linearGradient
       inkscape:collect="always"
       xlink:href="#linearGradient2-2"
       id="linearGradient16"
       gradientUnits="userSpaceOnUse"
       x1="-38.624649"
       y1="10.5"
       x2="57.08799"
       y2="10.5" />
    <linearGradient
       inkscape:collect="always"
       xlink:href="#linearGradient2-2"
       id="linearGradient17"
       gradientUnits="userSpaceOnUse"
       x1="-38.624649"
       y1="10.5"
       x2="57.08799"
       y2="10.5" />
    <linearGradient
       inkscape:collect="always"
       xlink:href="#linearGradient2-2"
       id="linearGradient18"
       gradientUnits="userSpaceOnUse"
       x1="-38.624649"
       y1="10.5"
       x2="57.08799"
       y2="10.5" />
    <linearGradient
       inkscape:collect="always"
       xlink:href="#linearGradient2-2"
       id="linearGradient19"
       gradientUnits="userSpaceOnUse"
       x1="-38.624649"
       y1="10.5"
       x2="57.08799"
       y2="10.5" />
    <linearGradient
       inkscape:collect="always"
       xlink:href="#linearGradient2-2"
       id="linearGradient20"
       gradientUnits="userSpaceOnUse"
       x1="-38.624649"
       y1="10.5"
       x2="57.08799"
       y2="10.5" />
    <linearGradient
       inkscape:collect="always"
       xlink:href="#linearGradient2-2"
       id="linearGradient21"
       gradientUnits="userSpaceOnUse"
       x1="-38.624649"
       y1="10.5"
       x2="57.08799"
       y2="10.5" />
    <linearGradient
       inkscape:collect="always"
       xlink:href="#linearGradient2-2"
       id="linearGradient22"
       gradientUnits="userSpaceOnUse"
       x1="-38.624649"
       y1="10.5"
       x2="57.08799"
       y2="10.5" />
  </defs>
  <g
     inkscape:groupmode="layer"
     id="layer2"
     inkscape:label="Phone Outline"
     transform="translate(-12.592298,-17.597887)" />
  <g
     inkscape:groupmode="layer"
     id="layer4"
     inkscape:label="Desktop Outline"
     transform="translate(-12.592298,-17.597887)" />
  <g
     inkscape:groupmode="layer"
     id="layer3"
     inkscape:label="Canvas Mobile"
     transform="translate(-12.592298,-17.597887)" />
  <g
     inkscape:groupmode="layer"
     id="layer5"
     inkscape:label="Canvas Desktop"
     transform="translate(-12.592298,-17.597887)">
    <rect
       style="fill:url(#linearGradient3);fill-opacity:1;stroke:#000000;stroke-width:0.0746163;stroke-opacity:1"
       id="rect3-9-7"
       width="105.53189"
       height="23.284866"
       x="12.629606"
       y="17.635195" />
    <text
       xml:space="preserve"
       style="font-size:8.30559px;fill:#ffe8c8;fill-opacity:1;stroke:#000000;stroke-width:0.00865165;stroke-dasharray:none"
       x="15.170997"
       y="38.029137"
       id="text1"><tspan
         sodipodi:role="line"
         id="tspan1"
         style="font-style:italic;font-variant:normal;font-weight:bold;font-stretch:normal;font-size:8.30559px;font-family:'Santello Regular';-inkscape-font-specification:'Santello Regular,  Bold Italic';fill:#ffe8c8;fill-opacity:1;stroke:#000000;stroke-width:0.00865165;stroke-dasharray:none"
         x="15.170997"
         y="38.029137"><tspan
   style="fill:#ffe8c8;fill-opacity:1;stroke:#000000;stroke-width:0.00865165;stroke-dasharray:none"
   id="tspan2">ThirtyMeal</tspan>s</tspan></text>
    <g
       style="fill:url(#linearGradient14);stroke:#000000;stroke-width:0.390362;stroke-dasharray:none;stroke-opacity:1"
       id="g5"
       transform="matrix(0.59840511,0,0,0.59840511,82.681715,28.116951)">
      <path
         style="color:#000000;display:none;fill:url(#linearGradient15);fill-opacity:1;stroke:#000000;stroke-width:0.390362;stroke-linecap:round;stroke-linejoin:round;stroke-dasharray:none;stroke-opacity:1"
         d="M 8,21.25 A 0.75,0.75 0 0 0 7.25,22 0.75,0.75 0 0 0 8,22.75 h 8 A 0.75,0.75 0 0 0 16.75,22 0.75,0.75 0 0 0 16,21.25 Z"
         id="path1" />
      <path
         style="color:#000000;fill:url(#linearGradient16);fill-opacity:1;stroke:#000000;stroke-width:0.390362;stroke-linecap:round;stroke-linejoin:round;stroke-dasharray:none;stroke-opacity:1"
         d="M 5,18.25 A 0.75,0.75 0 0 0 4.25,19 0.75,0.75 0 0 0 5,19.75 H 19 A 0.75,0.75 0 0 0 19.75,19 0.75,0.75 0 0 0 19,18.25 Z"
         id="path2" />
      <path
         id="path3"
         style="color:#000000;fill:url(#linearGradient17);fill-opacity:1;stroke:#000000;stroke-width:0.390362;stroke-linecap:round;stroke-linejoin:round;stroke-dasharray:none;stroke-opacity:1"
         inkscape:label="horizon"
         d="m 12.000012,5.2499575 c -0.787074,0 -1.545644,0.1359485 -2.2500046,0.3848842 C 9.3596329,5.7730025 9.1551039,6.201401 9.2931163,6.591828 c 0.1381608,0.3903747 0.5665596,0.5949037 0.9569867,0.4568911 0.546834,-0.1932629 1.134388,-0.2987582 1.749909,-0.2987582 2.908361,0 5.250012,2.3416413 5.250012,5.2500121 0,1.228425 -0.455029,2.325872 -1.158323,3.218851 H 7.9083241 C 7.2050119,14.325858 6.7500007,13.228413 6.7500007,11.999973 c 0,-0.615523 0.1054953,-1.203076 0.2987582,-1.74991 C 7.1867714,9.859636 6.9822424,9.4312373 6.5918678,9.2930765 6.2014408,9.1550641 5.7730423,9.3595931 5.6348815,9.7499676 5.3859457,10.454328 5.2499973,11.212897 5.2499973,11.999973 c 0,1.175621 0.3025383,2.284811 0.8333038,3.249913 h -4.083217 c -0.0085,0.0016 -0.016973,0.0033 -0.025414,0.0051 H -38.429469 v 1.451716 H 1.7826514 c 0.069937,0.02509 0.1432154,0.03965 0.2174327,0.0432 H 21.999941 c 0.07422,-0.0035 0.147495,-0.01811 0.217433,-0.0432 H 56.892809 V 15.254969 H 22.064041 c -0.02128,-0.0026 -0.04267,-0.0043 -0.0641,-0.0051 h -4.083217 c 0.530763,-0.965097 0.833304,-2.074281 0.833304,-3.249913 0,-3.7190308 -3.030996,-6.7500155 -6.750016,-6.7500155 z"
         sodipodi:nodetypes="sccsssccssccsccccccccccccccsss" />
      <path
         style="color:#000000;fill:url(#linearGradient18);fill-opacity:1;stroke:#000000;stroke-width:0.390362;stroke-linecap:round;stroke-dasharray:none;stroke-opacity:1"
         d="M 12,1.25 A 0.75,0.75 0 0 0 11.25,2 V 3 A 0.75,0.75 0 0 0 12,3.75 0.75,0.75 0 0 0 12.75,3 V 2 A 0.75,0.75 0 0 0 12,1.25 Z"
         id="path5" />
      <path
         style="color:#000000;fill:url(#linearGradient19);fill-opacity:1;stroke:#000000;stroke-width:0.390362;stroke-linecap:round;stroke-dasharray:none;stroke-opacity:1"
         d="M 21,11.25 A 0.75,0.75 0 0 0 20.25,12 0.75,0.75 0 0 0 21,12.75 h 1 A 0.75,0.75 0 0 0 22.75,12 0.75,0.75 0 0 0 22,11.25 Z"
         id="path6" />
      <path
         style="color:#000000;fill:url(#linearGradient20);fill-opacity:1;stroke:#000000;stroke-width:0.390362;stroke-linecap:round;stroke-dasharray:none;stroke-opacity:1"
         d="M 2,11.25 A 0.75,0.75 0 0 0 1.25,12 0.75,0.75 0 0 0 2,12.75 H 3 A 0.75,0.75 0 0 0 3.75,12 0.75,0.75 0 0 0 3,11.25 Z"
         id="path7" />
      <path
         style="color:#000000;fill:url(#linearGradient21);fill-opacity:1;stroke:#000000;stroke-width:0.390362;stroke-linecap:round;stroke-dasharray:none;stroke-opacity:1"
         d="m 19.070312,4.1796875 a 0.75,0.75 0 0 0 -0.529296,0.21875 l -0.392579,0.3945312 a 0.75,0.75 0 0 0 0,1.0605469 0.75,0.75 0 0 0 1.060547,0 l 0.392578,-0.3925781 a 0.75,0.75 0 0 0 0,-1.0625 0.75,0.75 0 0 0 -0.53125,-0.21875 z"
         id="path8" />
      <path
         style="color:#000000;fill:url(#linearGradient22);fill-opacity:1;stroke:#000000;stroke-width:0.390362;stroke-linecap:round;stroke-dasharray:none;stroke-opacity:1"
         d="m 4.9296875,4.1796875 a 0.75,0.75 0 0 0 -0.53125,0.21875 0.75,0.75 0 0 0 0,1.0605469 l 0.3925781,0.3945312 a 0.75,0.75 0 0 0 1.0605469,0 0.75,0.75 0 0 0 0,-1.0625 L 5.4589844,4.3984375 a 0.75,0.75 0 0 0 -0.5292969,-0.21875 z"
         id="path9" />
    </g>
  </g>
</svg>
